<svg xmlns="http://www.w3.org/2000/svg" xmlns:xlink="http://www.w3.org/1999/xlink" viewBox="0 0 1109.74 1105.15"><defs><style>.cls-1,.cls-5{stroke-miterlimit:10;}.cls-1{stroke-width:12.24px;fill:url(#Dégradé_sans_nom_6);stroke:url(#Dégradé_sans_nom_47);}.cls-2{isolation:isolate;}.cls-3{fill:#4b6d4e;}.cls-4{fill:#1d1d1b;}.cls-5{fill:none;stroke:#000;stroke-width:7.34px;}.cls-6{fill:#b66969;}.cls-7{fill:#b56969;}</style><linearGradient id="Dégradé_sans_nom_6" x1="21.13" y1="1202.28" x2="352.49" y2="1202.47" gradientTransform="matrix(0.99, 0.12, 0.12, -0.99, -154.86, 1677.42)" gradientUnits="userSpaceOnUse"><stop offset="0" stop-color="#3ddeed"/><stop offset="0" stop-color="#3ddeed" stop-opacity="0"/></linearGradient><linearGradient id="Dégradé_sans_nom_47" x1="17.75" y1="554.82" x2="1119.34" y2="554.82" gradientTransform="translate(89.28 -90.12) rotate(9.75)" gradientUnits="userSpaceOnUse"><stop offset="0" stop-color="#1d1d1b"/><stop offset="1" stop-color="#c05e67"/></linearGradient></defs><title>Asset 2</title><g id="Layer_2" data-name="Layer 2"><g id="Calque_1" data-name="Calque 1"><path class="cls-1" d="M372.24,36.93A545.1,545.1,0,0,1,620,10.22C919.77,46.9,1133.05,319.46,1096.34,619S786.82,1131.6,487,1094.92C201.6,1060-5.39,811.31,7.07,529.08"/><g class="cls-2"><path d="M76.42,617.29c-4.19,59.07,5.94,103.06,35.22,103.12,46.3.09,85.93-74.66,105.73-109.41,2-2.62,8.18-.64,6.8,4C202.32,652.32,162,727.73,111.63,727.63c-112.35.44-9.46-414.18,92.66-411.36,25.87.71,33.32,25,32.6,46C234.72,431.85,124.86,562.25,76.42,617.29Zm.71-12.47c49.8-56.35,150.11-178.23,152.27-242.55.71-17.07-4.7-38.08-25.8-38.78C146.41,322.07,87.55,487.36,77.13,604.82Z"/><path d="M399.16,614.64C380.71,648.08,340.41,718.23,303,718.16c-36.77-.08-38.05-46-32.53-87.36-10.94,27.54-24.61,53.11-40.95,53.08-40.16-1.39-15.43-122.77,26.78-121.37,7.49,0,15,5.28,21.75,17.11l2.06-5.25c.69-6.56,13.62-3.91,12.93,2.65-6.87,32.8-30.2,133.84,10,133.92,32.68.06,72.3-69.44,89.37-100.25C395.76,608.07,400.52,610.7,399.16,614.64ZM275.28,590.11c-6.78-14.45-13.58-20.37-19-20.38C229,569.68,209.76,676.62,229.51,676,247.89,676,265.69,623.57,275.28,590.11Z"/><path d="M587.75,615.66C570,645.82,511.25,750.72,472.44,750c-27.91-.71-33.94-53.89-26.33-122.79-10.95,29.51-25.29,57-42.32,57-40.16-1.39-15.43-122.77,26.78-121.37,7.49,0,15,5.28,21.75,17.1,7.57-44,55.62-257.18,118.26-256.4,18.38,0,24.48,17.77,24.45,32.86.56,68.92-93,200-134.6,261-9.66,69.56-7.72,124.69,12.71,125.39,32.68.06,92.1-104.18,107.81-131.06C583.68,609.09,588.44,610.41,587.75,615.66ZM449.58,590.45c-6.78-14.45-13.58-20.37-19-20.38C403.32,570,384.06,677,403.81,676.34,422.19,676.38,440,623.91,449.58,590.45ZM462.5,601c44.37-64.24,124.93-182.23,125-244.58,0-10.5-3.36-25.61-17-25.63C514.05,331.31,468.7,559.64,462.5,601Z"/><path d="M733.45,617.91C714.32,654,668,695.23,623,694.49c-34.72-.07-51-23.73-50.28-56.54,1.43-36.1,24.65-75.44,53.92-75.38,10.22,0,16.33,7.25,16.31,16.44.66,13.13-9.57,22.3-21.84,29.49a199.65,199.65,0,0,1-32.7,11.75,84.65,84.65,0,0,0-2.08,18.38c-1.4,24.94,8.09,48.59,37.36,48.64,40.86.74,85.18-39.87,102.95-72.65C729.37,612,734.14,613.32,733.45,617.91Zm-143-6.18a125.47,125.47,0,0,0,27.25-9.8c9.54-5.89,17.73-13.09,17.75-22.93,0-5.26-2.71-9.2-8.84-9.21C611.66,569.76,598,588.77,590.48,611.73Z"/><path d="M885.27,618.86c-16.39,30.82-58.72,92.43-98.89,92.36-26.56-.06-46.94-20.44-51.67-42.77l-3.48,42c-2.05,3.94-6.81,3.27-7.49-.67-4-66.95,15.68-385.91,115.09-385.71,23.15,0,28.55,23.68,28.52,42.06-2.17,70.22-85.45,185.58-128.46,248.51-.7,10.5-1.4,20.34-2.78,30.19,11.62-23.61,52.51-45.19,71.59-52.37,6.13-2.62,9.52,5.92,4.07,9.19-19.08,7.19-69.51,32-70.91,54.34-.72,20.35,23.75,47.31,45.53,48,36.09.07,77.05-60.9,92.08-88.43C881.2,613,886.64,614.93,885.27,618.86ZM741,598.89c43.7-64.24,116.74-169.11,118.9-232.78,0-13.78-2.66-34.79-21.05-34.82C778.9,331.17,752.75,484.71,741,598.89Z"/><path d="M1033,619.8c-14.35,26.89-39.58,50.47-73,51.06a55.05,55.05,0,0,1-10.21-1.33C941,685.26,927.34,697.05,908.27,697c-47-.09-55-69-18.9-92.58,3.41-2,6.81,2,5.44,5.26-21.82,19-20.57,79.38,14.15,80.1,15,0,24.54-11.11,30-22.91-45.58-17.81-58.37-101.19-14.79-101.11,27.91.06,37.39,30.92,37.35,53.24a97.54,97.54,0,0,1-8.25,44h6.81c30,.06,53.15-22.21,66.13-46.47C1028.94,613.23,1034.38,615.21,1033,619.8Zm-84.43,1.81c0-15.1-4.68-47.92-25.79-48-29.95-.71-20.55,70.85,18.91,86C946.49,647.86,948.56,634.08,948.58,621.61Z"/></g><path class="cls-3" d="M1040.28,548.76c.77-15.22,9.31-29,19.28-40.52s21.65-21.6,30.71-33.86a102.69,102.69,0,0,0,17.42-37.66c-1.67,21.78,3.19,44.54-4.42,65-9.48,25.49-35.52,40.42-60.24,51.77"/><path class="cls-4" d="M1042.32,548.76c1.62-23.5,19.66-40.42,35-56.37s27.08-33.43,32.35-55.12l-4-.55c-1.75,25.49,4.72,52.86-10.05,75.68-12.29,19-33.66,30.14-53.6,39.34-2.38,1.1-.31,4.62,2.06,3.52,20.66-9.53,42.32-21.2,55.06-40.8,15.27-23.49,8.81-51.48,10.61-77.74.16-2.3-3.46-2.76-4-.54a103.59,103.59,0,0,1-14.22,32.9c-6.56,9.88-15,18.26-23.21,26.75-14.34,14.81-28.58,31.44-30.06,52.93-.18,2.62,3.9,2.61,4.08,0Z"/><path class="cls-3" d="M1029.86,609.54a52.62,52.62,0,0,0-3.7-18.2c-9.73-24.42-36.94-39.78-42.91-65.38-1.82,19.2-3.55,39.14,3,57.3s23.77,34,43,32.33"/><path d="M1031.9,609.54c-.7-17.38-9.28-31-20.23-43.91-10.44-12.26-22.43-24.09-26.45-40.22-.59-2.36-3.81-1.63-4,.55-2,21.49-4.2,45.14,6.17,65,8.06,15.43,23.77,27.84,41.83,26.67,2.61-.17,2.63-4.25,0-4.08-17.72,1.15-32.59-11.85-39.59-27.28-8.48-18.7-6.2-40.51-4.33-60.31l-4,.54c8.05,32.24,45.13,47.92,46.54,83,.1,2.62,4.18,2.63,4.08,0Z"/><path class="cls-5" d="M1005.72,648.22a80.88,80.88,0,0,0,19-21.42c16.71-27.19,15-58.59,14.25-73.74-1.25-23.74-7.56-43.68-11.08-54.84-2.17-6.86-4.27-12.46-5.81-16.38"/><path class="cls-6" d="M1018.48,481.36c-14.4,7.7-30.5,13-47.56,12.42s-35.19-7.69-47.93-21.46c-7.65-8.26-13.08-21.59-7-29.4,5-6.41,14.89-5.56,23.3-3.51,29.64,7.21,58.36,23.45,81.61,46.13L985.72,455.6c-12.56-10.69-25.78-22.31-31.51-37.8s.29-35.32,15.19-36.34c7.85-.53,16.07,4.28,21.87,10.85s9.57,14.71,12.77,22.81c8.46,21.39,14.37,53.95,15.76,66-4.75-18-8.26-36.56-6.19-54.15s10.46-34.22,25.12-41.69a12.27,12.27,0,0,1,6.06-1.65,13.45,13.45,0,0,1,6.71,2.69c8.19,5.66,13.12,15.82,14.26,25.56s-1.08,19.13-4.33,27.72a100.09,100.09,0,0,1-36,46.9"/><path d="M1017.45,479.6c-14.79,7.8-31.1,13-48,12.07a67.39,67.39,0,0,1-42.22-17.94c-5.33-5.08-10-11.47-11.42-18.82C914,446,919.5,440,928.47,440c7.74,0,15.63,2.63,22.91,5.05A166.89,166.89,0,0,1,974,454.45,186.41,186.41,0,0,1,1019.46,487l2.88-2.88c-14.58-12.41-29.5-24.51-43.7-37.36-12-10.86-25.09-25-24.5-42.28.23-6.65,2.49-14.2,8.08-18.31,7.26-5.32,16.7-1.81,23,3.25,13.53,10.83,19,30.41,23.37,46.49a313.77,313.77,0,0,1,9.14,45.21l4-.54c-7.09-27.13-13.72-63.23,7.86-85.91,4.89-5.15,12.38-11.24,19.57-7.41,6.49,3.46,10.92,11.06,13,17.85,4.57,14.72-.41,30.54-7.11,43.78a98.23,98.23,0,0,1-30.71,35.84c-2.12,1.51-.09,5.05,2.06,3.53a102.59,102.59,0,0,0,31.44-35.88c7.63-14.55,13.3-32.05,8.25-48.35a37.22,37.22,0,0,0-12-18.27c-5.74-4.55-11.28-5.12-17.68-1.58-12.78,7.07-20.41,20.93-23.54,34.79-4.69,20.75-.36,42.5,4.92,62.7.56,2.15,4.28,1.79,4-.55a324,324,0,0,0-9.08-45.55c-4.64-17.22-10.59-38.08-25.22-49.54-12.11-9.49-28.59-8.73-35,6.56-6.57,15.69.65,32.09,10.79,44.33,7.42,9,16.52,16.37,25.34,23.88l30.79,26.2c2,1.68,4.8-1,2.88-2.88a189.4,189.4,0,0,0-47.79-33.93,172.53,172.53,0,0,0-26-10.34c-7.59-2.31-16.06-4.92-24.08-3.65-17.22,2.72-14.27,21.84-6.82,32.67,9.39,13.63,25.71,22.46,41.7,25.61,20.87,4.11,41.7-1.6,60.18-11.34,2.32-1.22.26-4.74-2.06-3.52Z"/><path class="cls-7" d="M0,501.2l2.45-28,5.63.5L6.22,495l17.29,1.52,1.72-19.69,5.55.48L29.06,497l23.54,2.06L52,505.77Z"/><path class="cls-7" d="M40.78,457.6,56,465.75l-1.19,6.87L6.43,446.2l1.38-8,54.49-8.63-1.23,7.1-17.13,2.69Zm-2.27-17.78-15.68,2.47c-3.56.56-6.74.79-9.85,1l0,.15c2.92,1.3,5.91,2.68,8.87,4.21l14,7.63Z"/><path class="cls-7" d="M16.87,397.17l50.61,12.9-1.67,6.54L15.21,403.7Z"/><path class="cls-7" d="M31.08,368.93,26.1,384l-5.44-1.8,12.11-36.73,5.45,1.8-5,15.16L77.36,377l-2.13,6.48Z"/><path class="cls-7" d="M44.62,288.6l11.22-2.39-2.45,4.93L40.93,296Zm39.86,26.87,12.3,12.16-3.1,6.25L54.79,294.77l3.62-7.29,54.7,7.24-3.2,6.46-17.2-2.3Zm2.89-17.68-15.74-2.1c-3.57-.47-6.69-1.16-9.74-1.81l-.07.14c2.43,2.07,4.9,4.25,7.3,6.56l11.26,11.3Z"/><path class="cls-7" d="M88.78,234.47l3.8-5.57L131,255.14l12.59-18.43,4.67,3.18-16.38,24Z"/><path class="cls-7" d="M148.64,212.74l9.18,14.66-4.46,5.36-28.85-47,5.19-6.26,51.58,19.63-4.6,5.55-16.21-6.2Zm6.89-16.55-14.84-5.66c-3.37-1.28-6.25-2.67-9.07-4l-.1.12c1.89,2.58,3.79,5.26,5.6,8.06l8.36,13.59Z"/><path class="cls-7" d="M224.07,127.62c-5.06-5.25-11.14-11.57-15.34-16.55l-.17.16c2.65,5.79,5.27,12.13,8,19.31l9.59,25.19-3.87,3.35-22.66-13.29c-6.69-3.95-12.68-7.68-17.85-11.4l-.12.1c4.14,5,9.58,11.9,14.34,18.12l13.59,17.85-4.86,4.21L173.3,132.78l6.51-5.62,23.27,13.28c5.84,3.44,10.94,6.61,15.49,9.85l.17-.15c-2.44-4.85-4.79-10.4-7.34-16.9l-9.48-25.19,6.51-5.62,36.62,37.37-5,4.31Z"/><path class="cls-7" d="M254.27,113.35,259,130l-5.77,3.92L238.6,80.72l6.74-4.56,44.07,33.21-6,4L269.6,103Zm11.22-14-12.67-9.57c-2.88-2.17-5.26-4.3-7.59-6.37l-.13.09c1.1,3,2.17,6.11,3.12,9.3l4.24,15.37Z"/><path class="cls-7" d="M281.15,54.2,307,99.55l-5.85,3.34L275.29,57.55Z"/><path class="cls-7" d="M322.17,91,300,43.7l6.66-3.12,26.38,16.81a148.23,148.23,0,0,1,15.7,11.39l.11-.14c-3.52-6-6.36-11.74-9.81-19.1l-9.28-19.78,5.76-2.7,22.16,47.28-6.17,2.89-26.27-17A166.89,166.89,0,0,1,309,48.64l-.18.17c3.15,5.8,5.95,11.41,9.64,19.27l9.47,20.2Z"/></g></g></svg>