<svg xmlns="http://www.w3.org/2000/svg" xmlns:xlink="http://www.w3.org/1999/xlink" viewBox="0 0 1532.75 1542.94"><defs><style>.cls-1,.cls-5{stroke-miterlimit:10;}.cls-1{stroke-width:12.24px;fill:url(#Dégradé_sans_nom_6);stroke:url(#Dégradé_sans_nom_47);}.cls-2{isolation:isolate;}.cls-3{fill:#4b6d4e;}.cls-4{fill:#1d1d1b;}.cls-5{fill:none;stroke:#000;stroke-width:7.34px;}.cls-6{fill:#b66969;}.cls-7{fill:#b56969;}</style><linearGradient id="Dégradé_sans_nom_6" x1="4.54" y1="1743.61" x2="462.51" y2="1743.87" gradientTransform="matrix(0.99, 0.12, 0.12, -0.99, -199.57, 2410.45)" gradientUnits="userSpaceOnUse"><stop offset="0" stop-color="#3ddeed"/><stop offset="0" stop-color="#3ddeed" stop-opacity="0"/></linearGradient><linearGradient id="Dégradé_sans_nom_47" x1="-7.24" y1="705.8" x2="1510.73" y2="705.8" gradientTransform="translate(146.58 -50.88) rotate(9.75)" gradientUnits="userSpaceOnUse"><stop offset="0" stop-color="#1d1d1b"/><stop offset="1" stop-color="#c05e67"/></linearGradient></defs><title>Asset 4</title><g id="Layer_2" data-name="Layer 2"><g id="Calque_1" data-name="Calque 1"><path class="cls-1" d="M514.38,49.27a743.9,743.9,0,0,1,342.33-37.4C1271,63.24,1565.72,445,1515,864.49s-427.71,718-842,666.58C278.59,1482.17-7.45,1133.85,9.77,738.56"/><g class="cls-2"><path d="M105.61,862.12c-5.8,82.72,8.21,144.34,48.66,144.42,64,.13,118.74-104.57,146.11-153.23,2.83-3.68,11.29-.9,9.4,5.53-30.2,52.34-85.9,157.95-155.52,157.81-155.25.62-13.08-580.09,128-576.14,35.75,1,46,35,45.05,64.44C324.35,602.39,172.55,785,105.61,862.12Zm1-17.47C175.4,765.73,314,595,317,504.93c1-23.9-6.49-53.33-35.66-54.31C202.31,448.63,121,680.13,106.58,844.65Z"/><path d="M551.58,858.4c-25.49,46.83-81.17,145.08-132.92,145-50.81-.1-52.57-64.45-44.94-122.35-15.13,38.58-34,74.39-56.59,74.35-55.51-2-21.33-172,37-170,10.35,0,20.68,7.4,30.06,24L387,802c1-9.19,18.83-5.48,17.87,3.71-9.49,45.94-41.74,187.45,13.78,187.56,45.16.09,99.9-97.25,123.5-140.41C546.89,849.19,553.47,852.88,551.58,858.4ZM380.4,824.05c-9.37-20.25-18.76-28.54-26.29-28.55-37.63-.08-64.25,149.71-37,148.85C342.55,944.4,367.15,870.9,380.4,824.05Z"/><path d="M812.19,859.83C787.66,902.07,706.48,1049,652.85,1048c-38.57-1-46.91-75.48-36.38-172-15.13,41.34-35,79.91-58.48,79.86-55.51-2-21.33-171.94,37-170,10.35,0,20.68,7.39,30.06,24,10.46-61.57,76.86-360.21,163.41-359.12,25.41.05,33.83,24.89,33.79,46,.77,96.53-128.46,280.13-186,365.51-13.35,97.42-10.66,174.64,17.56,175.62,45.16.09,127.28-145.92,149-183.57C806.56,850.62,813.15,852.48,812.19,859.83ZM621.26,824.52C611.89,804.28,602.5,796,595,796c-37.64-.07-64.25,149.72-37,148.85C583.41,944.87,608,871.38,621.26,824.52Zm17.85,14.74c61.32-90,172.64-255.22,172.79-342.55,0-14.71-4.64-35.86-23.46-35.9C710.35,461.58,647.68,781.37,639.11,839.26Z"/><path d="M1013.53,863C987.09,913.49,923,971.28,860.92,970.24c-48-.1-70.51-33.24-69.49-79.2,2-50.55,34.06-105.65,74.52-105.57,14.11,0,22.56,10.16,22.54,23,.91,18.39-13.23,31.23-30.18,41.31-15.07,7.32-32,12.8-45.19,16.45A119.32,119.32,0,0,0,810.25,892c-1.94,34.93,11.17,68,51.63,68.13,56.45,1,117.7-55.85,142.25-101.76C1007.9,854.7,1014.48,856.55,1013.53,863ZM816,854.32c11.3-2.74,25.42-7.3,37.66-13.72,13.19-8.24,24.5-18.33,24.52-32.12,0-7.36-3.74-12.88-12.21-12.9C845.23,795.54,826.37,822.17,816,854.32Z"/><path d="M1223.33,864.31c-22.66,43.16-81.15,129.46-136.66,129.35-36.69-.07-64.87-28.62-71.4-59.89l-4.81,58.82c-2.83,5.51-9.42,4.58-10.35-.94-5.47-93.77,21.67-540.49,159-540.22,32,.06,39.45,33.17,39.41,58.91-3,98.36-118.08,259.93-177.51,348.06-1,14.71-1.93,28.49-3.84,42.28,16.06-33.06,72.56-63.29,98.92-73.35,8.48-3.66,13.16,8.3,5.63,12.88-26.37,10.06-96,44.86-98,76.11-1,28.5,32.81,66.25,62.92,67.23,49.86.1,106.47-85.28,127.24-123.85C1217.7,856,1225.22,858.8,1223.33,864.31Zm-199.42-28c60.38-90,161.31-236.86,164.3-326,0-19.3-3.68-48.73-29.08-48.78C1076.33,461.38,1040.19,676.42,1023.91,836.34Z"/><path d="M1427.48,865.63c-19.83,37.65-54.7,70.68-100.8,71.51a74.21,74.21,0,0,1-14.11-1.87c-12.27,22-31.12,38.55-57.46,38.5-64.92-.13-76-96.67-26.11-129.67,4.7-2.75,9.4,2.78,7.51,7.37-30.15,26.6-28.42,111.18,19.56,112.19,20.7,0,33.9-15.56,41.45-32.09-63-25-80.66-141.73-20.44-141.61,38.57.07,51.67,43.3,51.61,74.56a138.22,138.22,0,0,1-11.4,61.57l9.41,0c41.4.08,73.44-31.11,91.38-65.09C1421.85,856.43,1429.37,859.2,1427.48,865.63Zm-116.67,2.53c0-21.14-6.47-67.12-35.63-67.18-41.4-1-28.41,99.23,26.12,120.48C1307.92,904.93,1310.78,885.63,1310.81,868.16Z"/></g><path class="cls-3" d="M1437.52,766.13c1.07-21.32,12.87-40.61,26.65-56.76s29.91-30.25,42.44-47.41a144.81,144.81,0,0,0,24.07-52.74c-2.3,30.49,4.41,62.38-6.11,91-13.1,35.69-49.08,56.6-83.25,72.5"/><path class="cls-4" d="M1439.56,766.13c2.06-32.55,26.6-56.41,47.74-78.64,10.6-11.14,20.75-22.68,28.61-36a149.7,149.7,0,0,0,16.74-41.78l-4-.54c-2.51,36,6.62,74.65-14.31,106.88-17.07,26.3-46.4,42-74,54.91-2.37,1.11-.3,4.63,2.06,3.52,22.63-10.57,45.42-22.73,63-40.83a95,95,0,0,0,19.54-28.79c5.68-13.36,7.47-27.86,7.79-42.27.39-17.82-1.21-35.62,0-53.42.16-2.3-3.48-2.77-4-.55a145.84,145.84,0,0,1-19,45.19c-8.8,13.72-20.16,25.42-31.39,37.14-20.16,21-40.89,44.62-42.82,75.13-.16,2.62,3.92,2.61,4.08,0Z"/><path class="cls-3" d="M1423.12,851.26a73.93,73.93,0,0,0-5.11-25.49c-13.44-34.2-51-55.72-59.29-91.58-2.51,26.9-4.9,54.82,4.09,80.25s32.85,47.63,59.43,45.29"/><path d="M1425.16,851.26c-.84-24.4-13.15-43.67-28.43-61.76-14.34-17-30.66-33.58-36-55.85-.57-2.37-3.8-1.63-4,.54-2.76,29.72-5.81,62.36,8.09,90,10.78,21.41,32.4,39.4,57.47,37.59,2.6-.18,2.62-4.26,0-4.07-24.74,1.78-45.48-16.82-55.21-38.22-12-26.44-8.88-57.24-6.27-85.28l-4,.54c5,20.55,19,36.58,32.43,52.2,16.27,18.9,31,38.33,31.91,64.33.09,2.62,4.16,2.63,4.07,0Z"/><path class="cls-5" d="M1389.78,905.44a113.31,113.31,0,0,0,26.26-30c23.09-38.08,20.8-82.06,19.69-103.28-1.73-33.24-10.44-61.17-15.31-76.8-3-9.62-5.9-17.46-8-23"/><path class="cls-6" d="M1407.4,671.74c-19.89,10.78-42.14,18.24-65.72,17.39s-48.63-10.77-66.23-30.06c-10.57-11.57-18.08-30.23-9.68-41.18,6.9-9,20.58-7.78,32.2-4.91,41,10.1,80.65,32.84,112.78,64.61l-48.62-41.94c-17.36-15-35.63-31.24-43.54-52.93s.39-49.48,21-50.9c10.85-.75,22.2,6,30.23,15.19s13.21,20.6,17.64,32c11.68,30,19.85,75.56,21.78,92.41-6.56-25.19-11.42-51.21-8.55-75.85s14.45-47.92,34.71-58.38a16.53,16.53,0,0,1,8.36-2.31c3.22.15,6.42,1.76,9.28,3.76,11.31,7.93,18.14,22.16,19.7,35.8s-1.49,26.79-6,38.82c-10,26.94-27.4,49.89-49.73,65.69"/><path d="M1406.37,670c-21.19,11.36-44.84,18.87-69.12,16.84-22-1.83-43.35-11.53-58.69-27.41-7.17-7.43-13.43-17.35-14.27-27.89-.93-11.76,7.36-18.55,18.6-18.6,10.49,0,21.14,3.51,31,6.78a232.73,232.73,0,0,1,32.39,13.6,257.18,257.18,0,0,1,63,45.73l2.88-2.88c-20.87-18-42.41-35.47-62.52-54.32-16.53-15.48-33.77-35.74-31.85-59.92.73-9.22,4.25-19.47,12.3-24.82,10.43-6.93,23.57-1.75,32.3,5.53,18.51,15.42,26,42.53,32,64.93a445.75,445.75,0,0,1,12.73,63.82l4-.54c-9.94-38.4-19.16-89.74,11.57-121.67a52.58,52.58,0,0,1,10-8.15,29,29,0,0,1,7.23-3.59c4.52-1.25,8.38.37,12,2.93,8.2,5.72,13.72,14.92,16.62,24.35,6.43,20.93-.59,43.41-10.07,62.28A137.32,137.32,0,0,1,1416,677.13c-2.11,1.52-.08,5.06,2.06,3.53a141.61,141.61,0,0,0,42.55-48.77c10.62-20,18.67-44.21,12.36-66.83-2.63-9.45-7.63-18.59-15-25.16-3.53-3.14-7.81-6.18-12.59-6.92-5.32-.81-10.32,1.76-14.7,4.51-17,10.68-26.75,29.87-30.62,49.09-5.7,28.35.1,57.8,7.23,85.33.55,2.16,4.27,1.8,4-.54a454.57,454.57,0,0,0-12.09-61.92,274,274,0,0,0-11.72-35.89c-5.15-12.46-11.65-25-22.15-33.82-8.33-7-19.81-12.22-30.81-9.11-8.69,2.46-14.7,9.76-17.85,17.93-8.61,22.3,2.13,45.12,16.61,62.14,10.12,11.92,22.26,21.93,34.06,32.11l42,36.22c2,1.7,4.77-1,2.88-2.88a260.54,260.54,0,0,0-63.85-46.37,237.32,237.32,0,0,0-34.93-14.52c-10.68-3.46-22.6-7.39-34-6.24-8.84.88-16.57,6-18.68,15-2.31,9.79,2,20.43,7.17,28.55,12.37,19.25,34.91,31.88,56.9,36.53,29,6.11,58.06-1.87,83.63-15.58,2.31-1.24.26-4.77-2.06-3.52Z"/><path class="cls-7" d="M0,699.53l3.38-39.26,7.78.69L8.6,690.81l23.88,2.12,2.38-27.58,7.68.69-2.38,27.58,32.53,2.89-.81,9.41Z"/><path class="cls-7" d="M56.35,638.45l21.09,11.42-1.65,9.63-66.91-37,1.92-11.23,75.3-12.09-1.7,10-23.68,3.76Zm-3.13-24.9L31.55,617c-4.92.78-9.32,1.11-13.62,1.45l0,.22c4,1.81,8.16,3.75,12.25,5.9l19.36,10.68Z"/><path class="cls-7" d="M23.32,553.82l69.92,18.06L90.94,581,21,563Z"/><path class="cls-7" d="M42.94,514.26,36.07,535.4l-7.53-2.52,16.74-51.44L52.81,484,45.9,505.19l61,20.41-3,9.07Z"/><path class="cls-7" d="M61.65,401.76l15.51-3.35-3.38,6.9-17.22,6.85Zm55.09,37.63,17,17-4.28,8.75L75.71,410.4l5-10.21,75.6,10.14-4.43,9.05-23.76-3.23Zm4-24.77L99,411.68c-4.94-.66-9.25-1.62-13.47-2.52l-.09.19c3.36,2.9,6.77,5.95,10.08,9.19l15.56,15.82Z"/><path class="cls-7" d="M122.68,325.94l5.25-7.8,53.16,36.76,17.38-25.83,6.46,4.47-22.64,33.62Z"/><path class="cls-7" d="M205.4,295.5,218.09,316l-6.16,7.51-39.88-65.82,7.18-8.77,71.27,27.49-6.36,7.76-22.39-8.67Zm9.52-23.17-20.5-7.93c-4.66-1.79-8.64-3.73-12.53-5.6l-.14.17c2.61,3.61,5.24,7.37,7.73,11.29l11.55,19Z"/><path class="cls-7" d="M309.63,176.29c-7-7.36-15.39-16.21-21.19-23.17l-.24.21c3.67,8.12,7.28,17,11,27l13.25,35.28-5.34,4.69-31.32-18.61c-9.24-5.53-17.52-10.75-24.66-16l-.16.14c5.72,7,13.22,16.67,19.81,25.38l18.78,25-6.73,5.89-43.39-58.66,9-7.87,32.15,18.59c8.08,4.83,15.12,9.27,21.4,13.81l.25-.21c-3.39-6.79-6.63-14.57-10.15-23.68L279,148.89l9-7.88,50.6,52.34-6.88,6Z"/><path class="cls-7" d="M351.36,156.3l6.54,23.3-8,5.48-20.19-74.47,9.31-6.4,60.9,46.53-8.25,5.66-19.12-14.65Zm15.51-19.57-17.5-13.4c-4-3-7.27-6-10.5-8.91l-.18.12c1.52,4.2,3,8.55,4.32,13l5.86,21.53Z"/><path class="cls-7" d="M388.51,73.47,424.28,137l-8.1,4.68L380.41,78.15Z"/><path class="cls-7" d="M445.2,125,414.57,58.75l9.21-4.37,36.45,23.55a203,203,0,0,1,21.69,15.95l.15-.2c-4.86-8.47-8.78-16.43-13.55-26.75L455.7,39.23l8-3.78,30.62,66.22-8.53,4L449.45,82A227,227,0,0,1,427,65.67l-.25.24c4.35,8.12,8.22,16,13.31,27l13.09,28.29Z"/></g></g></svg>